<svg xmlns="http://www.w3.org/2000/svg" width="256" height="256" viewBox="0 0 256 256">
  <defs>
    <linearGradient id="g" x1="0" y1="0" x2="1" y2="1">
      <stop offset="0" stop-color="#EDE9FE"/>
      <stop offset="1" stop-color="#ffffff" stop-opacity="0.78"/>
    </linearGradient>
    <filter id="shadow" x="-25%" y="-25%" width="150%" height="150%">
      <feDropShadow dx="0" dy="14" stdDeviation="14" flood-color="#2E1065" flood-opacity="0.18"/>
    </filter>
  </defs>
  <rect width="256" height="256" rx="64" fill="url(#g)"/>
  <circle cx="113" cy="146" r="2" fill="#7C3AED" opacity="0.16"/><circle cx="160" cy="177" r="3" fill="#7C3AED" opacity="0.16"/><circle cx="207" cy="208" r="4" fill="#7C3AED" opacity="0.16"/><circle cx="69" cy="49" r="2" fill="#7C3AED" opacity="0.16"/><circle cx="116" cy="80" r="3" fill="#7C3AED" opacity="0.16"/><circle cx="163" cy="111" r="4" fill="#7C3AED" opacity="0.16"/><circle cx="210" cy="142" r="2" fill="#7C3AED" opacity="0.16"/><circle cx="72" cy="173" r="3" fill="#7C3AED" opacity="0.16"/><circle cx="119" cy="204" r="4" fill="#7C3AED" opacity="0.16"/>
  <path d="M30 211c52-22 122-22 196 0" fill="none" stroke="#7C3AED" stroke-width="2" stroke-dasharray="8 12" opacity="0.28"/>
  <path d="M62 164a66 66 0 01132 0v28H62z" fill="#fff" filter="url(#shadow)"/><path d="M82 164a46 46 0 0192 0" fill="#7C3AED" opacity=".75"/><path d="M131 114l54-37 12 18-58 31z" fill="#2E1065"/><circle cx="128" cy="164" r="10" fill="#2E1065"/><path d="M74 192h108" stroke="#2E1065" stroke-width="10" stroke-linecap="round"/>
</svg>